<svg width="31" height="22" viewBox="0 0 41 27" fill="none" xmlns="http://www.w3.org/2000/svg">
<path fill-rule="evenodd" clip-rule="evenodd" d="M40.1875 13.5C40.1875 13.127 40.0393 12.7694 39.7756 12.5056C39.5119 12.2419 39.1542 12.0938 38.7813 12.0938H5.61345L14.4644 3.24563C14.5951 3.11488 14.6988 2.95966 14.7696 2.78884C14.8404 2.61801 14.8768 2.43491 14.8768 2.25001C14.8768 2.0651 14.8404 1.88201 14.7696 1.71118C14.6988 1.54035 14.5951 1.38513 14.4644 1.25438C14.3336 1.12363 14.1784 1.01992 14.0076 0.94916C13.8368 0.8784 13.6537 0.84198 13.4688 0.84198C13.2839 0.84198 13.1008 0.8784 12.9299 0.94916C12.7591 1.01992 12.6039 1.12363 12.4731 1.25438L1.22314 12.5044C1.09218 12.635 0.988275 12.7902 0.917382 12.961C0.846489 13.1319 0.809998 13.315 0.809998 13.5C0.809998 13.685 0.846489 13.8681 0.917382 14.039C0.988275 14.2098 1.09218 14.365 1.22314 14.4956L12.4731 25.7456C12.6039 25.8764 12.7591 25.9801 12.9299 26.0509C13.1008 26.1216 13.2839 26.158 13.4688 26.158C13.6537 26.158 13.8368 26.1216 14.0076 26.0509C14.1784 25.9801 14.3336 25.8764 14.4644 25.7456C14.5951 25.6149 14.6988 25.4597 14.7696 25.2888C14.8404 25.118 14.8768 24.9349 14.8768 24.75C14.8768 24.5651 14.8404 24.382 14.7696 24.2112C14.6988 24.0403 14.5951 23.8851 14.4644 23.7544L5.61345 14.9063H38.7813C39.1542 14.9063 39.5119 14.7581 39.7756 14.4944C40.0393 14.2307 40.1875 13.873 40.1875 13.5Z" fill="#252525"/>
</svg>
