<svg width="178" height="100" viewBox="0 0 232 232" fill="none" xmlns="http://www.w3.org/2000/svg">
<path d="M0 8.15625C0 6.10911 0.813223 4.14582 2.26077 2.69827C3.70832 1.25072 5.67161 0.4375 7.71875 0.4375H30.875C32.5968 0.437976 34.2689 1.0141 35.6256 2.07426C36.9823 3.13441 37.9455 4.61773 38.3622 6.28831L44.6144 31.3125H223.844C224.977 31.3135 226.096 31.5642 227.122 32.0466C228.148 32.529 229.054 33.2313 229.778 34.1037C230.501 34.976 231.024 35.997 231.308 37.0941C231.593 38.1912 231.632 39.3375 231.424 40.4515L208.267 163.952C207.936 165.72 206.998 167.318 205.613 168.468C204.229 169.618 202.487 170.248 200.688 170.25H61.75C59.9505 170.248 58.2081 169.618 56.8241 168.468C55.44 167.318 54.5013 165.72 54.1702 163.952L31.0294 40.6831L24.8544 15.875H7.71875C5.67161 15.875 3.70832 15.0618 2.26077 13.6142C0.813223 12.1667 0 10.2034 0 8.15625ZM47.8871 46.75L68.1566 154.812H194.281L214.55 46.75H47.8871ZM77.1875 170.25C68.9989 170.25 61.1458 173.503 55.3556 179.293C49.5654 185.083 46.3125 192.936 46.3125 201.125C46.3125 209.314 49.5654 217.167 55.3556 222.957C61.1458 228.747 68.9989 232 77.1875 232C85.3761 232 93.2292 228.747 99.0194 222.957C104.81 217.167 108.063 209.314 108.063 201.125C108.063 192.936 104.81 185.083 99.0194 179.293C93.2292 173.503 85.3761 170.25 77.1875 170.25ZM185.25 170.25C177.061 170.25 169.208 173.503 163.418 179.293C157.628 185.083 154.375 192.936 154.375 201.125C154.375 209.314 157.628 217.167 163.418 222.957C169.208 228.747 177.061 232 185.25 232C193.439 232 201.292 228.747 207.082 222.957C212.872 217.167 216.125 209.314 216.125 201.125C216.125 192.936 212.872 185.083 207.082 179.293C201.292 173.503 193.439 170.25 185.25 170.25ZM77.1875 185.688C81.2818 185.688 85.2084 187.314 88.1035 190.209C90.9986 193.104 92.625 197.031 92.625 201.125C92.625 205.219 90.9986 209.146 88.1035 212.041C85.2084 214.936 81.2818 216.562 77.1875 216.562C73.0932 216.562 69.1666 214.936 66.2715 212.041C63.3765 209.146 61.75 205.219 61.75 201.125C61.75 197.031 63.3765 193.104 66.2715 190.209C69.1666 187.314 73.0932 185.688 77.1875 185.688ZM185.25 185.688C189.344 185.688 193.271 187.314 196.166 190.209C199.061 193.104 200.688 197.031 200.688 201.125C200.688 205.219 199.061 209.146 196.166 212.041C193.271 214.936 189.344 216.562 185.25 216.562C181.156 216.562 177.229 214.936 174.334 212.041C171.439 209.146 169.813 205.219 169.813 201.125C169.813 197.031 171.439 193.104 174.334 190.209C177.229 187.314 181.156 185.688 185.25 185.688Z" fill="#434D5A"/>
</svg>

