<svg width="19" height="19" viewBox="0 0 27 33" fill="none" xmlns="http://www.w3.org/2000/svg">
<path d="M26.2637 8.67975H26.2509C26.0683 8.34694 25.81 8.0694 25.5003 7.87311L14.3037 1.07818C13.998 0.896238 13.6543 0.800781 13.3049 0.800781C12.9555 0.800781 12.6118 0.896238 12.3061 1.07818L1.10957 7.84576C0.793419 8.03769 0.530067 8.31596 0.346165 8.6524C0.346165 8.6542 0.345835 8.65597 0.345196 8.65763C0.344557 8.65929 0.343619 8.6608 0.342438 8.66207C0.341257 8.66334 0.339854 8.66435 0.33831 8.66503C0.336767 8.66572 0.335112 8.66607 0.333441 8.66607V8.69342C0.155305 9.01595 0.0628902 9.38479 0.0662506 9.75982V23.2403C0.0668939 23.63 0.163821 24.0126 0.347126 24.3489C0.53043 24.6852 0.79354 24.9631 1.10957 25.1544L12.3061 31.9219C12.588 32.0872 12.9014 32.1807 13.2222 32.1954H13.4003C13.7168 32.1786 14.0256 32.0852 14.3037 31.9219L25.5003 25.1544C25.8131 24.9603 26.0729 24.6813 26.2538 24.3454C26.4346 24.0095 26.5302 23.6284 26.5309 23.2403V9.75982C26.5327 9.38068 26.4405 9.00785 26.2637 8.67975ZM13.2986 2.99225L23.4518 9.11725L19.5457 11.4962L9.29069 5.41217L13.2986 2.99225ZM13.4131 15.2422L3.17075 9.11725L7.20406 6.68365L17.4718 12.7676L13.4131 15.2422ZM2.10199 10.9766L12.3952 17.1426L12.2934 29.4063L2.10199 23.2403V10.9766ZM14.3291 29.3926L14.4309 17.1426L18.5151 14.6407V19.8497C18.5151 20.1397 18.6224 20.4179 18.8133 20.6231C19.0042 20.8282 19.2631 20.9434 19.533 20.9434C19.803 20.9434 20.0619 20.8282 20.2527 20.6231C20.4436 20.4179 20.5509 20.1397 20.5509 19.8497V13.3965L24.4951 10.9903V23.2403L14.3291 29.3926Z" fill="white"/>
</svg>
