<svg width="25" height="25" viewBox="0 0 36 34" fill="none" xmlns="http://www.w3.org/2000/svg">
<path d="M34.9727 16.7265L18.8828 0.648406C18.767 0.532328 18.6294 0.440236 18.4779 0.377403C18.3264 0.314569 18.164 0.282227 18 0.282227C17.836 0.282227 17.6736 0.314569 17.5221 0.377403C17.3706 0.440236 17.233 0.532328 17.1172 0.648406L1.02734 16.7265C0.558594 17.1953 0.292969 17.832 0.292969 18.4961C0.292969 19.875 1.41406 20.9961 2.79297 20.9961H4.48828V32.4687C4.48828 33.1601 5.04688 33.7187 5.73828 33.7187H15.5V24.9687H19.875V33.7187H30.2617C30.9531 33.7187 31.5117 33.1601 31.5117 32.4687V20.9961H33.207C33.8711 20.9961 34.5078 20.7343 34.9766 20.2617C35.9492 19.2851 35.9492 17.7031 34.9727 16.7265Z" fill="#D08840"/>
</svg>
