<svg width="178" height="100" viewBox="0 0 278 218" fill="none" xmlns="http://www.w3.org/2000/svg">
<path d="M275.374 99L206.249 4.595C205.362 3.28223 204.172 2.20213 202.78 1.44589C201.388 0.689657 199.834 0.279483 198.25 0.25H10.625C8.00599 0.25 5.49424 1.2904 3.64232 3.14232C1.7904 4.99424 0.75 7.50599 0.75 10.125V178C0.75 180.619 1.7904 183.131 3.64232 184.983C5.49424 186.835 8.00599 187.875 10.625 187.875H31.7575C34.0315 196.243 38.9959 203.63 45.8846 208.896C52.7734 214.163 61.2037 217.016 69.875 217.016C78.5463 217.016 86.9766 214.163 93.8654 208.896C100.754 203.63 105.718 196.243 107.993 187.875H170.007C172.282 196.243 177.246 203.63 184.135 208.896C191.023 214.163 199.454 217.016 208.125 217.016C216.796 217.016 225.227 214.163 232.115 208.896C239.004 203.63 243.968 196.243 246.243 187.875H267.375C269.994 187.875 272.506 186.835 274.358 184.983C276.21 183.131 277.25 180.619 277.25 178V104.53C277.196 102.54 276.542 100.612 275.374 99ZM178.5 20H193.214L243.873 89.125H178.5V20ZM69.875 197.75C65.9688 197.75 62.1504 196.592 58.9025 194.422C55.6546 192.251 53.1232 189.167 51.6284 185.558C50.1335 181.949 49.7424 177.978 50.5045 174.147C51.2665 170.316 53.1476 166.797 55.9096 164.035C58.6717 161.273 62.1908 159.392 66.022 158.629C69.8531 157.867 73.8242 158.259 77.433 159.753C81.0418 161.248 84.1264 163.78 86.2965 167.027C88.4667 170.275 89.625 174.094 89.625 178C89.625 183.238 87.5442 188.261 83.8404 191.965C80.1365 195.669 75.113 197.75 69.875 197.75ZM208.125 197.75C204.219 197.75 200.4 196.592 197.152 194.422C193.905 192.251 191.373 189.167 189.878 185.558C188.384 181.949 187.992 177.978 188.754 174.147C189.517 170.316 191.398 166.797 194.16 164.035C196.922 161.273 200.441 159.392 204.272 158.629C208.103 157.867 212.074 158.259 215.683 159.753C219.292 161.248 222.376 163.78 224.547 167.027C226.717 170.275 227.875 174.094 227.875 178C227.875 183.238 225.794 188.261 222.09 191.965C218.387 195.669 213.363 197.75 208.125 197.75ZM257.5 168.125H246.243C243.968 159.757 239.004 152.37 232.115 147.104C225.227 141.837 216.796 138.984 208.125 138.984C199.454 138.984 191.023 141.837 184.135 147.104C177.246 152.37 172.282 159.757 170.007 168.125H107.993C105.718 159.757 100.754 152.37 93.8654 147.104C86.9766 141.837 78.5463 138.984 69.875 138.984C61.2037 138.984 52.7734 141.837 45.8846 147.104C38.9959 152.37 34.0315 159.757 31.7575 168.125H20.5V20H158.75V108.875H257.5V168.125Z" fill="#D89C60"/>
</svg>
