<svg width="25" height="25" viewBox="0 0 38 38" fill="none" xmlns="http://www.w3.org/2000/svg">
<path d="M0 1.75C0 1.41848 0.131696 1.10054 0.366117 0.866116C0.600537 0.631696 0.918479 0.5 1.25 0.5H5C5.27883 0.500077 5.54963 0.593377 5.76933 0.765062C5.98903 0.936747 6.14502 1.17696 6.2125 1.4475L7.225 5.5H36.25C36.4335 5.50017 36.6148 5.54076 36.7809 5.61888C36.947 5.697 37.0938 5.81074 37.211 5.95201C37.3282 6.09328 37.4128 6.25863 37.4588 6.43629C37.5049 6.61396 37.5113 6.79959 37.4775 6.98L33.7275 26.98C33.6739 27.2664 33.5219 27.5252 33.2977 27.7114C33.0736 27.8976 32.7914 27.9997 32.5 28H10C9.70858 27.9997 9.42641 27.8976 9.20228 27.7114C8.97814 27.5252 8.82612 27.2664 8.7725 26.98L5.025 7.0175L4.025 3H1.25C0.918479 3 0.600537 2.8683 0.366117 2.63388C0.131696 2.39946 0 2.08152 0 1.75ZM12.5 28C11.1739 28 9.90215 28.5268 8.96447 29.4645C8.02678 30.4021 7.5 31.6739 7.5 33C7.5 34.3261 8.02678 35.5979 8.96447 36.5355C9.90215 37.4732 11.1739 38 12.5 38C13.8261 38 15.0979 37.4732 16.0355 36.5355C16.9732 35.5979 17.5 34.3261 17.5 33C17.5 31.6739 16.9732 30.4021 16.0355 29.4645C15.0979 28.5268 13.8261 28 12.5 28ZM30 28C28.6739 28 27.4022 28.5268 26.4645 29.4645C25.5268 30.4021 25 31.6739 25 33C25 34.3261 25.5268 35.5979 26.4645 36.5355C27.4022 37.4732 28.6739 38 30 38C31.3261 38 32.5979 37.4732 33.5355 36.5355C34.4732 35.5979 35 34.3261 35 33C35 31.6739 34.4732 30.4021 33.5355 29.4645C32.5979 28.5268 31.3261 28 30 28ZM12.5 30.5C13.163 30.5 13.7989 30.7634 14.2678 31.2322C14.7366 31.7011 15 32.337 15 33C15 33.663 14.7366 34.2989 14.2678 34.7678C13.7989 35.2366 13.163 35.5 12.5 35.5C11.837 35.5 11.2011 35.2366 10.7322 34.7678C10.2634 34.2989 10 33.663 10 33C10 32.337 10.2634 31.7011 10.7322 31.2322C11.2011 30.7634 11.837 30.5 12.5 30.5ZM30 30.5C30.663 30.5 31.2989 30.7634 31.7678 31.2322C32.2366 31.7011 32.5 32.337 32.5 33C32.5 33.663 32.2366 34.2989 31.7678 34.7678C31.2989 35.2366 30.663 35.5 30 35.5C29.337 35.5 28.7011 35.2366 28.2322 34.7678C27.7634 34.2989 27.5 33.663 27.5 33C27.5 32.337 27.7634 31.7011 28.2322 31.2322C28.7011 30.7634 29.337 30.5 30 30.5Z" fill="white"/>
</svg>
