<svg width="25" height="40" viewBox="0 0 28 48" fill="none" xmlns="http://www.w3.org/2000/svg">
<path d="M1.48319 1.6265C0.824107 2.28577 0.453857 3.17982 0.453857 4.11204C0.453857 5.04426 0.824107 5.93831 1.48319 6.59759L18.8855 23.9999L1.48319 41.4023C0.842786 42.0653 0.488429 42.9534 0.496439 43.8752C0.504449 44.797 0.874185 45.6787 1.52601 46.3305C2.17784 46.9824 3.0596 47.3521 3.98138 47.3601C4.90317 47.3681 5.79122 47.0138 6.45428 46.3734L26.3422 26.4855C27.0012 25.8262 27.3715 24.9321 27.3715 23.9999C27.3715 23.0677 27.0012 22.1737 26.3422 21.5144L6.45428 1.6265C5.795 0.967417 4.90095 0.597168 3.96873 0.597168C3.03651 0.597168 2.14246 0.967417 1.48319 1.6265Z" fill="#252525"/>
</svg>

