<svg width="19" height="19" viewBox="0 0 25 30" fill="none" xmlns="http://www.w3.org/2000/svg">
<path d="M12.4999 29.0833C14.1041 29.0833 15.4166 27.7708 15.4166 26.1666H9.58325C9.58325 27.7708 10.8958 29.0833 12.4999 29.0833ZM21.2499 20.3333V13.0416C21.2499 8.5645 18.8728 4.81659 14.6874 3.82492V2.83325C14.6874 1.62284 13.7103 0.645752 12.4999 0.645752C11.2895 0.645752 10.3124 1.62284 10.3124 2.83325V3.82492C6.14159 4.81659 3.74992 8.54992 3.74992 13.0416V20.3333L0.833252 23.2499V24.7083H24.1666V23.2499L21.2499 20.3333ZM18.3333 21.7916H6.66658V13.0416C6.66658 9.42492 8.86867 6.47909 12.4999 6.47909C16.1312 6.47909 18.3333 9.42492 18.3333 13.0416V21.7916Z" fill="white"/>
</svg>
