<svg width="178" height="118" viewBox="0 0 176 230" fill="none" xmlns="http://www.w3.org/2000/svg">
<path d="M172.375 76.75C177.447 76.75 182.312 74.735 185.898 71.1484C189.485 67.5617 191.5 62.6972 191.5 57.625C191.5 52.5527 189.485 47.6882 185.898 44.1015C182.312 40.5149 177.447 38.5 172.375 38.5C167.303 38.5 162.438 40.5149 158.852 44.1015C155.265 47.6882 153.25 52.5527 153.25 57.625C153.25 62.6972 155.265 67.5617 158.852 71.1484C162.438 74.735 167.303 76.75 172.375 76.75V76.75ZM11.4764 155.851C7.91557 152.317 5.0894 148.113 3.16079 143.481C1.23218 138.85 0.239258 133.883 0.239258 128.866C0.239258 123.849 1.23218 118.881 3.16079 114.25C5.0894 109.618 7.91557 105.414 11.4764 101.88L102.129 11.6867C109.3 4.56329 118.988 0.550723 129.095 0.517713L191.232 0.249964C196.294 0.214468 201.312 1.18398 205.997 3.10231C210.681 5.02065 214.938 7.84964 218.52 11.4253C222.103 15.001 224.941 19.2522 226.868 23.9326C228.796 28.613 229.775 33.6295 229.75 38.6912L229.291 102.989C229.214 113.03 225.172 122.633 218.046 129.707L128.732 218.581C121.524 225.737 111.779 229.752 101.622 229.752C91.4653 229.752 81.7205 225.737 74.5124 218.581L11.4764 155.851V155.851ZM25.036 115.382C23.2585 117.149 21.8478 119.25 20.8852 121.564C19.9226 123.878 19.4271 126.359 19.4271 128.866C19.4271 131.372 19.9226 133.853 20.8852 136.167C21.8478 138.481 23.2585 140.582 25.036 142.349L88.072 205.079C95.569 212.537 107.694 212.537 115.191 205.079L204.505 116.205C208.059 112.667 210.073 107.87 210.109 102.856L210.568 38.5382C210.578 36.0106 210.087 33.506 209.123 31.1693C208.159 28.8325 206.742 26.7101 204.953 24.9245C203.164 23.139 201.038 21.7258 198.7 20.7667C196.361 19.8075 193.856 19.3215 191.328 19.3367L129.172 19.5853C124.118 19.6018 119.274 21.6081 115.689 25.1698L25.036 115.382Z" fill="#D89C60"/>
</svg>
